<svg xmlns="http://www.w3.org/2000/svg" viewBox="0 0 48 48" width="48" height="48">
  <circle cx="24" cy="24" r="22" fill="#3B82F6" stroke="#1E40AF" stroke-width="2"/>
  <rect x="12" y="10" width="24" height="28" rx="2" fill="#FFFFFF"/>
  <rect x="12" y="10" width="3" height="28" rx="2" fill="#1E40AF"/>
  <rect x="16" y="12" width="18" height="24" fill="#F8FAFC" stroke="#E2E8F0" stroke-width="0.5"/>
  
  <!-- Dictionary entries -->
  <rect x="18" y="16" width="14" height="1.5" rx="0.5" fill="#3B82F6"/>
  <rect x="18" y="19" width="12" height="1" rx="0.5" fill="#64748B"/>
  <rect x="18" y="21" width="10" height="1" rx="0.5" fill="#64748B"/>
  <rect x="18" y="23" width="13" height="1" rx="0.5" fill="#64748B"/>
  
  <rect x="18" y="26" width="13" height="1.5" rx="0.5" fill="#10B981"/>
  <rect x="18" y="29" width="11" height="1" rx="0.5" fill="#64748B"/>
  <rect x="18" y="31" width="9" height="1" rx="0.5" fill="#64748B"/>
  
  <rect x="18" y="34" width="12" height="1.5" rx="0.5" fill="#F59E0B"/>
  
  <!-- Bookmark -->
  <rect x="33" y="10" width="3" height="8" fill="#EF4444"/>
  <polygon points="34.5,18 33,16 36,16" fill="#EF4444"/>
  
  <!-- IPA phonetic -->
  <text x="20" y="15" font-family="serif" font-size="3" fill="#3B82F6" font-weight="bold">/maɪnd/</text>
</svg>