<svg xmlns="http://www.w3.org/2000/svg" viewBox="0 0 128 128" width="128" height="128">
  <!-- Background circle -->
  <circle cx="64" cy="64" r="58" fill="#3B82F6" stroke="#1E40AF" stroke-width="4"/>
  
  <!-- Book spine -->
  <rect x="32" y="28" width="64" height="72" rx="4" fill="#FFFFFF"/>
  <rect x="32" y="28" width="8" height="72" rx="4" fill="#1E40AF"/>
  
  <!-- Book pages -->
  <rect x="42" y="32" width="50" height="64" fill="#F8FAFC" stroke="#E2E8F0" stroke-width="1"/>
  
  <!-- Text lines representing dictionary entries -->
  <rect x="48" y="42" width="38" height="2" rx="1" fill="#3B82F6"/>
  <rect x="48" y="48" width="32" height="1.5" rx="0.75" fill="#64748B"/>
  <rect x="48" y="52" width="28" height="1.5" rx="0.75" fill="#64748B"/>
  <rect x="48" y="56" width="34" height="1.5" rx="0.75" fill="#64748B"/>
  
  <rect x="48" y="64" width="36" height="2" rx="1" fill="#10B981"/>
  <rect x="48" y="70" width="30" height="1.5" rx="0.75" fill="#64748B"/>
  <rect x="48" y="74" width="26" height="1.5" rx="0.75" fill="#64748B"/>
  
  <rect x="48" y="82" width="34" height="2" rx="1" fill="#F59E0B"/>
  <rect x="48" y="88" width="28" height="1.5" rx="0.75" fill="#64748B"/>
  
  <!-- Dictionary marker/bookmark -->
  <rect x="88" y="28" width="8" height="20" fill="#EF4444"/>
  <polygon points="92,48 88,44 96,44" fill="#EF4444"/>
  
  <!-- Phonetic symbols (IPA-style) -->
  <text x="52" y="39" font-family="serif" font-size="6" fill="#3B82F6" font-weight="bold">/maɪnd/</text>
</svg>