<svg xmlns="http://www.w3.org/2000/svg" viewBox="0 0 128 128" width="128" height="128">
  <!-- Background with gradient -->
  <defs>
    <radialGradient id="bgGradient" cx="0.3" cy="0.3" r="0.8">
      <stop offset="0%" style="stop-color:#60A5FA;stop-opacity:1" />
      <stop offset="100%" style="stop-color:#3B82F6;stop-opacity:1" />
    </radialGradient>
    <linearGradient id="bookGradient" x1="0" y1="0" x2="1" y2="0">
      <stop offset="0%" style="stop-color:#FFFFFF;stop-opacity:1" />
      <stop offset="100%" style="stop-color:#F1F5F9;stop-opacity:1" />
    </linearGradient>
  </defs>
  
  <!-- Main circle background -->
  <circle cx="64" cy="64" r="58" fill="url(#bgGradient)" stroke="#1E40AF" stroke-width="4"/>
  
  <!-- Book base -->
  <rect x="28" y="24" width="72" height="80" rx="6" fill="url(#bookGradient)" stroke="#E2E8F0" stroke-width="1"/>
  
  <!-- Book spine with shadow -->
  <rect x="28" y="24" width="12" height="80" rx="6" fill="#1E40AF"/>
  <rect x="32" y="28" width="4" height="72" rx="2" fill="#1D4ED8"/>
  
  <!-- Pages with shadow -->
  <rect x="42" y="28" width="54" height="72" fill="#FFFFFF" stroke="#CBD5E1" stroke-width="1"/>
  <rect x="44" y="30" width="50" height="68" fill="#FEFEFE"/>
  
  <!-- Dictionary content sections -->
  <!-- Main headword -->
  <rect x="48" y="38" width="42" height="3" rx="1.5" fill="#3B82F6"/>
  <text x="52" y="36" font-family="serif" font-size="7" fill="#3B82F6" font-weight="bold">/maɪnd/</text>
  
  <!-- Definition 1 -->
  <circle cx="50" cy="48" r="1" fill="#10B981"/>
  <rect x="54" y="47" width="32" height="2" rx="1" fill="#64748B"/>
  <rect x="54" y="51" width="28" height="1.5" rx="0.75" fill="#94A3B8"/>
  <rect x="54" y="54" width="36" height="1.5" rx="0.75" fill="#94A3B8"/>
  <rect x="54" y="57" width="24" height="1.5" rx="0.75" fill="#94A3B8"/>
  
  <!-- Definition 2 -->
  <circle cx="50" cy="66" r="1" fill="#F59E0B"/>
  <rect x="54" y="65" width="30" height="2" rx="1" fill="#64748B"/>
  <rect x="54" y="69" width="26" height="1.5" rx="0.75" fill="#94A3B8"/>
  <rect x="54" y="72" width="34" height="1.5" rx="0.75" fill="#94A3B8"/>
  
  <!-- Definition 3 -->
  <circle cx="50" cy="81" r="1" fill="#EF4444"/>
  <rect x="54" y="80" width="28" height="2" rx="1" fill="#64748B"/>
  <rect x="54" y="84" width="32" height="1.5" rx="0.75" fill="#94A3B8"/>
  <rect x="54" y="87" width="20" height="1.5" rx="0.75" fill="#94A3B8"/>
  
  <!-- Bookmark ribbon -->
  <rect x="94" y="24" width="6" height="24" fill="#EF4444"/>
  <polygon points="97,48 94,44 100,44" fill="#DC2626"/>
  
  <!-- Audio/pronunciation indicator -->
  <circle cx="84" cy="36" r="6" fill="#10B981" opacity="0.9"/>
  <polygon points="81,33 81,39 84,39 87,42 87,30 84,33" fill="#FFFFFF"/>
  <path d="M 88 32 Q 90 34 90 36 Q 90 38 88 40" stroke="#FFFFFF" stroke-width="1.5" fill="none"/>
  
  <!-- CERF level badge -->
  <rect x="76" y="90" width="16" height="8" rx="4" fill="#F59E0B"/>
  <text x="84" y="96" font-family="sans-serif" font-size="6" fill="#FFFFFF" text-anchor="middle" font-weight="bold">A2</text>
</svg>